
<svg id="Layer_2" data-name="Layer 2" xmlns="http://www.w3.org/2000/svg" xmlns:xlink="http://www.w3.org/1999/xlink"  width="178.078" height="184.967" viewBox="0 0 165.24 165.24"><defs><style>.e{fill:#fff;}.f{fill:url(#d);}</style><linearGradient id="d" x1="0" y1="82.62" x2="165.24" y2="82.62" gradientTransform="matrix(1, 0, 0, 1, 0, 0)" gradientUnits="userSpaceOnUse"><stop offset="0" stop-color="#cd5a36"/><stop offset=".18" stop-color="#cc533e"/><stop offset=".47" stop-color="#ca4057"/><stop offset=".84" stop-color="#c6227e"/><stop offset=".91" stop-color="#c61c88"/></linearGradient></defs><g id="a"/><g id="b"><g id="c"><circle class="f" cx="82.62" cy="82.62" r="82.62"/><g><path class="e" d="M69.28,25.37v3.76c15.13,0,29.05,6.96,37.23,18.61,4.51,6.42,6.81,13.56,6.82,21.21,0,8.57-2.94,16.75-8.51,23.66-5.62,6.97-13.38,11.98-22.43,14.48-4.28,1.18-8.62,1.79-12.9,1.79-5.4,0-10.91-.96-16.39-2.85-1.05-.36-2.23-.55-3.49-.55-1.58,0-3.25,.3-4.69,.84-2.59,.97-5.09,2.11-7.51,3.2-1.75,.79-3.4,1.54-5.09,2.24,.33-2.05,.75-4.07,1.19-6.21,.44-2.12,.89-4.31,1.25-6.52,.34-2.08,.14-5-1.43-6.97-7.48-9.4-9.96-21.36-6.8-32.8,3.4-12.28,12.93-22.17,26.17-27.14,5.29-1.99,10.87-2.99,16.58-2.99v-3.76m-19.66,55.24c5.04,0,9.22-4.14,9.31-9.22,.1-5.08-3.92-9.38-8.97-9.59-.12,0-.25,0-.37,0-2.46,0-4.79,.98-6.55,2.75-1.79,1.8-2.77,4.19-2.75,6.73,.04,5.11,4.19,9.3,9.26,9.33h.06m19.69,0c.08,0,.15,0,.23,0,5.02-.13,9.23-4.47,9.18-9.49-.05-5.02-4.32-9.29-9.33-9.32h-.07c-5.05,0-9.25,4.12-9.37,9.19-.06,2.48,.93,4.95,2.72,6.77,1.77,1.81,4.19,2.85,6.64,2.85m19.69,0h.15c5.03-.09,9.27-4.4,9.27-9.41,0-5.01-4.24-9.32-9.27-9.4h-.15c-2.48,0-4.93,1.06-6.72,2.92-1.78,1.85-2.76,4.32-2.68,6.78,.17,4.95,4.47,9.12,9.4,9.12m-19.72-55.25c-6,0-12.07,1.05-17.9,3.23-30.3,11.38-38.18,44.21-21,65.81,.75,.94,.87,2.73,.66,4.03-.72,4.43-1.83,8.8-2.52,13.24-.19,1.23,.22,3.03,1.06,3.79,.31,.28,.86,.39,1.47,.39,.75,0,1.59-.17,2.19-.41,4.37-1.77,8.58-3.95,12.99-5.61,1-.38,2.21-.6,3.37-.6,.8,0,1.58,.11,2.26,.34,5.85,2.02,11.72,3.05,17.62,3.05,4.61,0,9.24-.63,13.9-1.92,20.01-5.54,33.71-22.53,33.7-41.77-.01-8.59-2.58-16.37-7.5-23.37-9.04-12.87-24.43-20.21-40.31-20.21h0Zm-19.66,51.48h-.04c-3.01-.02-5.5-2.55-5.52-5.6-.02-3.13,2.5-5.69,5.54-5.69,.07,0,.14,0,.22,0,3.03,.12,5.41,2.68,5.36,5.75-.06,3.04-2.56,5.53-5.55,5.53h0Zm19.69,0c-3.04,0-5.67-2.7-5.6-5.78,.07-2.99,2.64-5.51,5.6-5.51h.04c2.98,.02,5.57,2.61,5.6,5.6,.03,2.97-2.54,5.62-5.51,5.69-.04,0-.09,0-.13,0h0Zm19.69,0c-2.92,0-5.54-2.54-5.64-5.49-.1-3.05,2.58-5.81,5.64-5.81,.03,0,.06,0,.09,0,2.97,.05,5.57,2.69,5.57,5.64,0,2.95-2.61,5.6-5.57,5.65-.03,0-.06,0-.09,0h0Z"/><path class="e" d="M127.57,65.26c3.63,4.96,5.94,10.76,6.68,16.92,1.11,9.18-1.38,18.37-7,25.86-2.2,2.94-2.85,6.02-2.02,9.7,.72,3.2,1.38,6.44,1.98,9.67-3.2-1.36-6.65-2.88-9.96-4.5-1.82-.89-3.6-1.32-5.44-1.32-1.42,0-2.87,.26-4.43,.8-5.53,1.9-10.99,2.86-16.21,2.86-4.42,0-8.79-.69-13.07-2.07,16.84-2.51,31.64-11.47,40.76-25.03,6.66-9.89,9.6-21.32,8.69-32.88m-8.58-14.56c14.01,34.47-13.06,68.17-50.64,68.17-3.08,0-6.23-.23-9.43-.7,1.67,1.31,2.57,2.12,3.57,2.79,9.15,6.21,18.72,9.29,28.7,9.29,5.81,0,11.76-1.05,17.84-3.13,1-.34,1.91-.53,2.8-.53,1.06,0,2.1,.26,3.23,.81,4.23,2.07,8.57,3.93,12.91,5.76,.87,.37,1.64,.54,2.3,.54,1.93,0,2.89-1.52,2.43-4.2-.74-4.31-1.6-8.61-2.56-12.88-.47-2.11-.25-3.73,1.14-5.58,13.24-17.65,10.26-42.17-6.75-56.3-1.58-1.31-3.31-2.43-5.53-4.06h0Z"/></g></g></g></svg>